<svg width="1440" height="1348" viewBox="0 0 1440 1348" fill="none" xmlns="http://www.w3.org/2000/svg">
<path opacity="0.85" d="M1440 1278L1392 1288.7C1344 1299 1248 1321 1152 1326C1056 1331 960 1321 864 1288.7C768 1257 672 1203 576 1224.7C480 1246 384 1342 288 1347.3C192 1353 96 1267 48 1224.7L0 1182V1150H48C96 1150 192 1150 288 1150C384 1150 480 1150 576 1150C672 1150 768 1150 864 1150C960 1150 1056 1150 1152 1150C1248 1150 1344 1150 1392 1150H1440V1278Z" fill="#0012B0"/>
<path opacity="0.85" d="M0 70L48 59.3C96 49 192 27 288 22C384 17 480 27 576 59.3C672 91 768 145 864 123.3C960 102 1056 6 1152 0.699996C1248 -5 1344 81 1392 123.3L1440 166V198H1392C1344 198 1248 198 1152 198C1056 198 960 198 864 198C768 198 672 198 576 198C480 198 384 198 288 198C192 198 96 198 48 198H0V70Z" fill="#0012B0"/>
<rect opacity="0.85" y="198" width="1440" height="952" fill="#0012B0"/>
</svg>
