<?xml version="1.0" standalone="no"?><svg xmlns="http://www.w3.org/2000/svg" viewBox="0 0 1440 320"><path fill="#8080808a" fill-opacity="0.15" d="M0,128L40,122.7C80,117,160,107,240,133.3C320,160,400,224,480,240C560,256,640,224,720,197.3C800,171,880,149,960,165.3C1040,181,1120,235,1200,245.3C1280,256,1360,224,1400,208L1440,192L1440,320L1400,320C1360,320,1280,320,1200,320C1120,320,1040,320,960,320C880,320,800,320,720,320C640,320,560,320,480,320C400,320,320,320,240,320C160,320,80,320,40,320L0,320Z"></path></svg>